<?xml version="1.0" encoding="utf-8"?>
<!-- Generator: Adobe Illustrator 24.0.0, SVG Export Plug-In . SVG Version: 6.00 Build 0)  -->
<svg version="1.1" id="Capa_1" xmlns="http://www.w3.org/2000/svg" xmlns:xlink="http://www.w3.org/1999/xlink" x="0px" y="0px"
	 viewBox="0 0 512 512" style="enable-background:new 0 0 512 512;" xml:space="preserve">
<style type="text/css">
	.st0{fill:#FFFFFF;}
</style>
<g>
	<g>
		<path class="st0" d="M509,2.9c-2.7-2.7-6.8-3.6-10.4-2.3L83.3,148.7c-14.4-8.8-32.7-10.9-49.5-3.9C5.9,156.3-7.4,188.3,4.2,216.2
			C31.4,281.9,70.7,340.7,121,391s109.1,89.6,174.8,116.8c6.8,2.8,13.9,4.2,20.9,4.2c21.5,0,41.9-12.7,50.6-33.8
			c5.9-14.2,5.3-29.4-0.3-42.5L511.5,13.2C512.7,9.6,511.8,5.6,509,2.9z M146.2,147.5l44-15.7c5.2,5.5,7.7,13.1,6.7,20.8
			c-0.9,6.8-4.4,12.8-9.8,16.9c-5.4,4.1-12.1,5.9-18.8,5c-6.7-0.9-12.7-4.4-16.9-9.8C147.6,159.8,145.7,153.7,146.2,147.5z
			 M348.8,470.6c-7.3,17.7-27.7,26.1-45.3,18.8c-128-53-227.8-152.8-280.8-280.8c-3.5-8.6-3.5-18,0-26.6
			c3.5-8.6,10.2-15.2,18.8-18.8s18-3.5,26.6,0s15.2,10.2,18.8,18.8c22.7,54.8,55.5,103.9,97.4,145.8s91,74.7,145.8,97.4
			C347.7,432.6,356.1,452.9,348.8,470.6z M437.6,167.3c-0.9,0-1.8-0.1-2.7-0.2c-6.7-0.9-12.7-4.4-16.9-9.8c-4.1-5.4-5.9-12.1-5-18.8
			c1.8-13.9,14.7-23.8,28.6-21.9c4.3,0.6,8.3,2.2,11.8,4.8L437.6,167.3z M460,101.9c-4.9-2.7-10.2-4.4-15.8-5.2
			c-24.9-3.3-47.8,14.3-51,39.2c-1.6,12,1.6,24,9,33.6c7.1,9.3,17.3,15.4,28.8,17.2l-19.9,58.1l-22.9-17.5c-4.4-3.4-10.7-2.5-14,1.8
			c-3.4,4.4-2.5,10.7,1.8,14l28.2,21.6L352.6,416c-4.3-3.8-9.3-6.9-14.9-9.2c-106-43.9-188.5-126.4-232.4-232.4
			c-1.5-3.7-3.4-7.1-5.6-10.3l26.8-9.5c0.9,8.1,4,15.8,9.1,22.4c7.4,9.6,18.1,15.8,30.2,17.4c2,0.3,4,0.4,6,0.4
			c9.9,0,19.6-3.3,27.6-9.4c9.6-7.4,15.8-18.1,17.4-30.2c1.4-10.8-1.1-21.5-6.8-30.4l124.3-44.3l4.7,11.4c1.6,3.9,5.3,6.2,9.2,6.2
			c1.3,0,2.6-0.2,3.8-0.8c5.1-2.1,7.5-8,5.4-13.1l-4.3-10.4l132.7-47.3L460,101.9z"/>
	</g>
</g>
<g>
	<g>
		<path class="st0" d="M108,268.3c0,0-0.1-0.2-0.1-0.2c-3.1-4.6-9.3-5.8-13.9-2.8c-4.6,3.1-5.8,9.3-2.8,13.8
			c1.9,2.9,5.1,4.5,8.4,4.5c1.9,0,3.7-0.5,5.4-1.6C109.6,279.1,111,272.9,108,268.3z"/>
	</g>
</g>
<g>
	<g>
		<path class="st0" d="M92.8,243.4c-9.7-17.1-18.5-35-26-53.1c-2.1-5.1-8-7.5-13.1-5.4c-5.1,2.1-7.5,8-5.4,13.1
			c7.8,19,17,37.6,27.1,55.4c1.8,3.2,5.2,5,8.7,5c1.7,0,3.4-0.4,4.9-1.3C93.9,254.3,95.5,248.2,92.8,243.4z"/>
	</g>
</g>
<g>
	<g>
		<path class="st0" d="M312.9,128c-2-0.3-4-0.4-6-0.4c-22.7,0-42.1,17-45.1,39.6c-3.3,24.9,14.3,47.8,39.2,51c2,0.3,4,0.4,6,0.4
			c22.7,0,42.1-17,45.1-39.6C355.4,154.2,337.8,131.3,312.9,128z M332.3,176.4c-1.7,12.6-12.5,22.2-25.2,22.2
			c-1.1,0-2.3-0.1-3.4-0.2c-13.9-1.8-23.8-14.7-21.9-28.6c1.7-12.6,12.5-22.2,25.2-22.2c1.1,0,2.3,0.1,3.4,0.2
			C324.3,149.7,334.1,162.5,332.3,176.4z"/>
	</g>
</g>
<g>
	<g>
		<path class="st0" d="M310.3,252.4c-2-0.3-4-0.4-6-0.4c-22.7,0-42.1,17-45.1,39.6c-1.6,12,1.6,24,9,33.6
			c7.4,9.6,18.1,15.8,30.2,17.4c2,0.3,4,0.4,6,0.4c22.7,0,42.1-17,45.1-39.6C352.8,278.5,335.2,255.6,310.3,252.4z M329.7,300.8
			c-1.7,12.6-12.5,22.2-25.2,22.2c-1.1,0-2.3-0.1-3.4-0.2c-6.8-0.9-12.8-4.4-16.9-9.8s-5.9-12.1-5-18.8
			c1.7-12.6,12.5-22.2,25.2-22.2c1.1,0,2.3,0.1,3.4,0.2C321.7,274,331.5,286.9,329.7,300.8z"/>
	</g>
</g>
<g>
	<g>
		<path class="st0" d="M244.4,210.9l-30.7-4c-5.5-0.7-10.5,3.1-11.2,8.6c-0.7,5.5,3.1,10.5,8.6,11.2l30.7,4c0.4,0.1,0.9,0.1,1.3,0.1
			c4.9,0,9.2-3.7,9.9-8.7C253.7,216.7,249.9,211.7,244.4,210.9z"/>
	</g>
</g>
<g>
	<g>
		<path class="st0" d="M228.8,284.7l-2.7-20.6c-0.7-5.5-5.7-9.3-11.2-8.6c-5.5,0.7-9.3,5.7-8.6,11.2l2.7,20.6c0.7,5,5,8.7,9.9,8.7
			c0.4,0,0.9,0,1.3-0.1C225.7,295.2,229.5,290.2,228.8,284.7z"/>
	</g>
</g>
</svg>
